<?xml version="1.0" encoding="UTF-8"?>
<svg width="188px" height="165px" viewBox="0 0 188 165" version="1.1" xmlns="http://www.w3.org/2000/svg" xmlns:xlink="http://www.w3.org/1999/xlink">
    <!-- Generator: Sketch 41.1 (35376) - http://www.bohemiancoding.com/sketch -->
    <title>Combined Shape</title>
    <desc>Created with Sketch.</desc>
    <defs></defs>
    <g id="Page-1" stroke="none" stroke-width="1" fill="none" fill-rule="evenodd">
        <g id="495400-200" fill="#f6f9fc">
            <path d="M38.38,25.12 C52.28,10.56 71.63,0.63 91.98,0.34 C113.19,-0.04 132.34,12.09 146.78,26.7 C151.23,23.56 156.52,21.48 162.02,21.58 C170.61,21.5 179,26.24 183.41,33.58 C187.83,40.69 188.33,50.07 184.54,57.55 C182.01,62.77 177.58,66.85 172.47,69.49 C177.89,86.93 175.9,106.39 167.49,122.55 C160.68,135.76 149.66,146.64 136.65,153.74 C108.81,168.93 72.74,168.12 45.85,151.18 C31.71,142.28 20.49,128.62 15.15,112.72 C10.31,98.69 10.28,83.31 13.85,68.99 C5.31,64.4 -0.3,54.8 0.48,45.05 C0.99,33.88 9.92,23.84 20.95,22 C26.93,20.77 33.1,22.25 38.38,25.12 Z M81.5,8.72 C93.82,6.08 106.86,8.14 117.95,14.05 C137.35,24.21 152.69,41.47 161.77,61.28 C167.42,73.68 169.87,87.75 167.12,101.22 C163.53,120.98 150.01,138.22 132.39,147.56 C105.39,161.96 69.97,160.15 45.28,141.75 C32.04,131.92 22.48,117.09 19.62,100.79 C16.58,83.95 20.56,66.47 28.34,51.44 C39.03,30.72 58.13,13.22 81.5,8.72 Z M58.39,71.55 C61.88,70.24 66.45,69.77 69.28,72.69 C72.59,76.26 72.98,81.44 73.31,86.05 C73.4,92.01 74.16,98.53 70.78,103.81 C66.4,111.45 56.03,114.7 48.07,110.94 C39.71,107.43 34.58,96.5 39.18,88.22 C43.36,80.67 50.38,74.7 58.39,71.55 Z M118.28,71.14 C122.97,69.39 127.92,71.69 131.97,74.01 C138.4,78.01 144.42,83.53 147.09,90.79 C149.66,99.55 143.53,109.35 134.89,111.74 C127.22,114.18 118.25,110.67 114.26,103.7 C110.78,98.12 111.78,91.26 111.97,85.02 C112.44,80.01 113.17,73.59 118.28,71.14 Z M122.26,98.2 C125.5,96.26 129.91,99.3 129.38,103 C129.24,106.65 124.39,108.63 121.63,106.35 C118.83,104.42 119.17,99.66 122.26,98.2 Z M57.41,99.42 C59.8,97.63 63.65,99.14 64.12,102.1 C65,105.39 61.2,108.47 58.15,106.97 C55.09,105.82 54.65,101.14 57.41,99.42 Z M82.22,101.03 C88.76,100.39 95.42,100.88 102,100.78 C103.87,100.56 105.68,102.71 104.67,104.44 C103.48,107.01 102.94,110.87 99.75,111.68 C95.49,111.98 91.2,111.79 86.93,111.8 C83.08,112.05 82.47,107.44 81.13,104.8 C80.14,103.47 80.8,101.72 82.22,101.03 Z M87.44,115.76 C94.81,113.38 103.53,117.32 106.59,124.41 C107.72,127.23 104.08,130.32 101.58,128.36 C99.73,126.55 98.69,123.85 96.11,122.89 C91.69,120.67 86.21,122.73 83.82,126.91 C82.33,130.11 76.91,128.49 77.43,124.98 C78.75,120.41 83.04,117.15 87.44,115.76 Z" id="Combined-Shape"></path>
        </g>
    </g>
</svg>
