<?xml version="1.0" encoding="UTF-8"?>
<svg width="23px" height="170px" viewBox="0 0 23 170" version="1.1" xmlns="http://www.w3.org/2000/svg" xmlns:xlink="http://www.w3.org/1999/xlink">
    <g id="Welcome" stroke="none" stroke-width="1" fill="none" fill-rule="evenodd" stroke-linecap="round" stroke-linejoin="round">
        <g id="Desktop" transform="translate(-679.000000, -1850.000000)" stroke="inherit" stroke-width="2">
            <path d="M690.5,1935 L689.5,1934.58824 L688.5,1934.13072 L687.545455,1933.71895 L686.590909,1933.30719 L685.681818,1932.89542 L684.818182,1932.43791 L684,1932.02614 L683.227273,1931.61438 L682.545455,1931.20261 L681.954545,1930.7451 L681.409091,1930.33333 L680.954545,1929.92157 L680.545455,1929.46405 L680.272727,1929.05229 L680.090909,1928.64052 L680,1928.22876 L680,1927.77124 L680.090909,1927.35948 L680.272727,1926.94771 L680.545455,1926.53595 L680.954545,1926.07843 L681.409091,1925.66667 L681.954545,1925.2549 L682.545455,1924.79739 L683.227273,1924.38562 L684,1923.97386 L684.818182,1923.56209 L685.681818,1923.10458 L686.590909,1922.69281 L687.545455,1922.28105 L688.5,1921.86928 L689.5,1921.41176 L690.5,1921 L691.5,1920.58824 L692.5,1920.13072 L693.454545,1919.71895 L694.409091,1919.30719 L695.318182,1918.89542 L696.181818,1918.43791 L697,1918.02614 L697.772727,1917.61438 L698.454545,1917.20261 L699.045455,1916.7451 L699.590909,1916.33333 L700.045455,1915.92157 L700.454545,1915.46405 L700.727273,1915.05229 L700.909091,1914.64052 L701,1914.22876 L701,1913.77124 L700.909091,1913.35948 L700.727273,1912.94771 L700.454545,1912.53595 L700.045455,1912.07843 L699.590909,1911.66667 L699.045455,1911.2549 L698.454545,1910.79739 L697.772727,1910.38562 L697,1909.97386 L696.181818,1909.56209 L695.318182,1909.10458 L694.409091,1908.69281 L693.454545,1908.28105 L692.5,1907.86928 L691.5,1907.41176 L690.5,1907 L689.5,1906.58824 L688.5,1906.13072 L687.545455,1905.71895 L686.590909,1905.30719 L685.681818,1904.89542 L684.818182,1904.43791 L684,1904.02614 L683.227273,1903.61438 L682.545455,1903.20261 L681.954545,1902.7451 L681.409091,1902.33333 L680.954545,1901.92157 L680.545455,1901.46405 L680.272727,1901.05229 L680.090909,1900.64052 L680,1900.22876 L680,1899.77124 L680.090909,1899.35948 L680.272727,1898.94771 L680.545455,1898.53595 L680.954545,1898.07843 L681.409091,1897.66667 L681.954545,1897.2549 L682.545455,1896.79739 L683.227273,1896.38562 L684,1895.97386 L684.818182,1895.56209 L685.681818,1895.10458 L686.590909,1894.69281 L687.545455,1894.28105 L688.5,1893.86928 L689.5,1893.41176 L690.5,1893 M690.5,1851 L691.5,1851.41176 L692.5,1851.86928 L693.454545,1852.28105 L694.409091,1852.69281 L695.318182,1853.10458 L696.181818,1853.56209 L697,1853.97386 L697.772727,1854.38562 L698.454545,1854.79739 L699.045455,1855.2549 L699.590909,1855.66667 L700.045455,1856.07843 L700.454545,1856.53595 L700.727273,1856.94771 L700.909091,1857.35948 L701,1857.77124 L701,1858.22876 L700.909091,1858.64052 L700.727273,1859.05229 L700.454545,1859.46405 L700.045455,1859.92157 L699.590909,1860.33333 L699.045455,1860.7451 L698.454545,1861.20261 L697.772727,1861.61438 L697,1862.02614 L696.181818,1862.43791 L695.318182,1862.89542 L694.409091,1863.30719 L693.454545,1863.71895 L692.5,1864.13072 L691.5,1864.58824 L690.5,1865 L689.5,1865.41176 L688.5,1865.86928 L687.545455,1866.28105 L686.590909,1866.69281 L685.681818,1867.10458 L684.818182,1867.56209 L684,1867.97386 L683.227273,1868.38562 L682.545455,1868.79739 L681.954545,1869.2549 L681.409091,1869.66667 L680.954545,1870.07843 L680.545455,1870.53595 L680.272727,1870.94771 L680.090909,1871.35948 L680,1871.77124 L680,1872.22876 L680.090909,1872.64052 L680.272727,1873.05229 L680.545455,1873.46405 L680.954545,1873.92157 L681.409091,1874.33333 L681.954545,1874.7451 L682.545455,1875.20261 L683.227273,1875.61438 L684,1876.02614 L684.818182,1876.43791 L685.681818,1876.89542 L686.590909,1877.30719 L687.545455,1877.71895 L688.5,1878.13072 L689.5,1878.58824 L690.5,1879 L691.5,1879.41176 L692.5,1879.86928 L693.454545,1880.28105 L694.409091,1880.69281 L695.318182,1881.10458 L696.181818,1881.56209 L697,1881.97386 L697.772727,1882.38562 L698.454545,1882.79739 L699.045455,1883.2549 L699.590909,1883.66667 L700.045455,1884.07843 L700.454545,1884.53595 L700.727273,1884.94771 L700.909091,1885.35948 L701,1885.77124 L701,1886.22876 L700.909091,1886.64052 L700.727273,1887.05229 L700.454545,1887.46405 L700.045455,1887.92157 L699.590909,1888.33333 L699.045455,1888.7451 L698.454545,1889.20261 L697.772727,1889.61438 L697,1890.02614 L696.181818,1890.43791 L695.318182,1890.89542 L694.409091,1891.30719 L693.454545,1891.71895 L692.5,1892.13072 L691.5,1892.58824 L690.5,1893 L690.5,1893 M690.5,2019 L689.5,2018.58824 L688.5,2018.13072 L687.545455,2017.71895 L686.590909,2017.30719 L685.681818,2016.89542 L684.818182,2016.43791 L684,2016.02614 L683.227273,2015.61438 L682.545455,2015.20261 L681.954545,2014.7451 L681.409091,2014.33333 L680.954545,2013.92157 L680.545455,2013.46405 L680.272727,2013.05229 L680.090909,2012.64052 L680,2012.22876 L680,2011.77124 L680.090909,2011.35948 L680.272727,2010.94771 L680.545455,2010.53595 L680.954545,2010.07843 L681.409091,2009.66667 L681.954545,2009.2549 L682.545455,2008.79739 L683.227273,2008.38562 L684,2007.97386 L684.818182,2007.56209 L685.681818,2007.10458 L686.590909,2006.69281 L687.545455,2006.28105 L688.5,2005.86928 L689.5,2005.41176 L690.5,2005 L691.5,2004.58824 L692.5,2004.13072 L693.454545,2003.71895 L694.409091,2003.30719 L695.318182,2002.89542 L696.181818,2002.43791 L697,2002.02614 L697.772727,2001.61438 L698.454545,2001.20261 L699.045455,2000.7451 L699.590909,2000.33333 L700.045455,1999.92157 L700.454545,1999.46405 L700.727273,1999.05229 L700.909091,1998.64052 L701,1998.22876 L701,1997.77124 L700.909091,1997.35948 L700.727273,1996.94771 L700.454545,1996.53595 L700.045455,1996.07843 L699.590909,1995.66667 L699.045455,1995.2549 L698.454545,1994.79739 L697.772727,1994.38562 L697,1993.97386 L696.181818,1993.56209 L695.318182,1993.10458 L694.409091,1992.69281 L693.454545,1992.28105 L692.5,1991.86928 L691.5,1991.41176 L690.5,1991 L689.5,1990.58824 L688.5,1990.13072 L687.545455,1989.71895 L686.590909,1989.30719 L685.681818,1988.89542 L684.818182,1988.43791 L684,1988.02614 L683.227273,1987.61438 L682.545455,1987.20261 L681.954545,1986.7451 L681.409091,1986.33333 L680.954545,1985.92157 L680.545455,1985.46405 L680.272727,1985.05229 L680.090909,1984.64052 L680,1984.22876 L680,1983.77124 L680.090909,1983.35948 L680.272727,1982.94771 L680.545455,1982.53595 L680.954545,1982.07843 L681.409091,1981.66667 L681.954545,1981.2549 L682.545455,1980.79739 L683.227273,1980.38562 L684,1979.97386 L684.818182,1979.56209 L685.681818,1979.10458 L686.590909,1978.69281 L687.545455,1978.28105 L688.5,1977.86928 L689.5,1977.41176 L690.5,1977 M690.5,1935 L691.5,1935.41176 L692.5,1935.86928 L693.454545,1936.28105 L694.409091,1936.69281 L695.318182,1937.10458 L696.181818,1937.56209 L697,1937.97386 L697.772727,1938.38562 L698.454545,1938.79739 L699.045455,1939.2549 L699.590909,1939.66667 L700.045455,1940.07843 L700.454545,1940.53595 L700.727273,1940.94771 L700.909091,1941.35948 L701,1941.77124 L701,1942.22876 L700.909091,1942.64052 L700.727273,1943.05229 L700.454545,1943.46405 L700.045455,1943.92157 L699.590909,1944.33333 L699.045455,1944.7451 L698.454545,1945.20261 L697.772727,1945.61438 L697,1946.02614 L696.181818,1946.43791 L695.318182,1946.89542 L694.409091,1947.30719 L693.454545,1947.71895 L692.5,1948.13072 L691.5,1948.58824 L690.5,1949 L689.5,1949.41176 L688.5,1949.86928 L687.545455,1950.28105 L686.590909,1950.69281 L685.681818,1951.10458 L684.818182,1951.56209 L684,1951.97386 L683.227273,1952.38562 L682.545455,1952.79739 L681.954545,1953.2549 L681.409091,1953.66667 L680.954545,1954.07843 L680.545455,1954.53595 L680.272727,1954.94771 L680.090909,1955.35948 L680,1955.77124 L680,1956.22876 L680.090909,1956.64052 L680.272727,1957.05229 L680.545455,1957.46405 L680.954545,1957.92157 L681.409091,1958.33333 L681.954545,1958.7451 L682.545455,1959.20261 L683.227273,1959.61438 L684,1960.02614 L684.818182,1960.43791 L685.681818,1960.89542 L686.590909,1961.30719 L687.545455,1961.71895 L688.5,1962.13072 L689.5,1962.58824 L690.5,1963 L691.5,1963.41176 L692.5,1963.86928 L693.454545,1964.28105 L694.409091,1964.69281 L695.318182,1965.10458 L696.181818,1965.56209 L697,1965.97386 L697.772727,1966.38562 L698.454545,1966.79739 L699.045455,1967.2549 L699.590909,1967.66667 L700.045455,1968.07843 L700.454545,1968.53595 L700.727273,1968.94771 L700.909091,1969.35948 L701,1969.77124 L701,1970.22876 L700.909091,1970.64052 L700.727273,1971.05229 L700.454545,1971.46405 L700.045455,1971.92157 L699.590909,1972.33333 L699.045455,1972.7451 L698.454545,1973.20261 L697.772727,1973.61438 L697,1974.02614 L696.181818,1974.43791 L695.318182,1974.89542 L694.409091,1975.30719 L693.454545,1975.71895 L692.5,1976.13072 L691.5,1976.58824 L690.5,1977 L690.5,1977" id="Combined-Shape"></path>
        </g>
    </g>
</svg>